<svg width="28" height="29" viewBox="0 0 28 29" fill="none" xmlns="http://www.w3.org/2000/svg">
<g id="add-to-basket">
<g id="vector">
<path d="M24.8603 12.4345C23.9011 13.0054 22.7805 13.3333 21.5833 13.3333C18.0395 13.3333 15.1666 10.4604 15.1666 6.91658C15.1666 6.71995 15.1755 6.52538 15.1928 6.33325H6.23827L5.81742 3.80812C5.72366 3.24557 5.23694 2.83325 4.66663 2.83325H2.33329C1.68896 2.83325 1.16663 3.35559 1.16663 3.99992C1.16663 4.64425 1.68896 5.16659 2.33329 5.16659H3.67831L5.84917 18.1917C5.94292 18.7543 6.42965 19.1666 6.99996 19.1666H22.75C23.3203 19.1666 23.807 18.7543 23.9008 18.1917L24.8603 12.4345Z" fill="#0C0A09"/>
<path d="M9.33329 20.3333C8.04463 20.3333 6.99996 21.3779 6.99996 22.6666C6.99996 23.9552 8.04463 24.9999 9.33329 24.9999C10.622 24.9999 11.6666 23.9552 11.6666 22.6666C11.6666 21.3779 10.622 20.3333 9.33329 20.3333Z" fill="#0C0A09"/>
<path d="M17.5 22.6666C17.5 21.3779 18.5446 20.3333 19.8333 20.3333C21.122 20.3333 22.1666 21.3779 22.1666 22.6666C22.1666 23.9552 21.122 24.9999 19.8333 24.9999C18.5446 24.9999 17.5 23.9552 17.5 22.6666Z" fill="#0C0A09"/>
<path fill-rule="evenodd" clip-rule="evenodd" d="M21.5833 2.83325C22.2276 2.83325 22.75 3.35559 22.75 3.99992V5.74992H24.5C25.1443 5.74992 25.6666 6.27225 25.6666 6.91658C25.6666 7.56092 25.1443 8.08325 24.5 8.08325H22.75V9.83325C22.75 10.4776 22.2276 10.9999 21.5833 10.9999C20.939 10.9999 20.4166 10.4776 20.4166 9.83325V8.08325H18.6666C18.0223 8.08325 17.5 7.56092 17.5 6.91658C17.5 6.27225 18.0223 5.74992 18.6666 5.74992H20.4166V3.99992C20.4166 3.35559 20.939 2.83325 21.5833 2.83325Z" fill="#0C0A09"/>
</g>
</g>
</svg>
