<svg width="17" height="16" viewBox="0 0 17 16" fill="none" xmlns="http://www.w3.org/2000/svg">
<g id="plus-small, add small">
<path id="vector" fill-rule="evenodd" clip-rule="evenodd" d="M8.25586 4C8.532 4 8.75586 4.22386 8.75586 4.5V7.5H11.7559C12.032 7.5 12.2559 7.72386 12.2559 8C12.2559 8.27614 12.032 8.5 11.7559 8.5H8.75586V11.5C8.75586 11.7761 8.532 12 8.25586 12C7.97972 12 7.75586 11.7761 7.75586 11.5V8.5H4.75586C4.47972 8.5 4.25586 8.27614 4.25586 8C4.25586 7.72386 4.47972 7.5 4.75586 7.5H7.75586V4.5C7.75586 4.22386 7.97972 4 8.25586 4Z" fill="black"/>
</g>
</svg>
