<svg width="25" height="24" viewBox="0 0 25 24" fill="none" xmlns="http://www.w3.org/2000/svg">
<g id="food-experiences,plate">
<path id="vector" d="M9.85 4.5H10H10.15M10.75 4.5C10.75 4.91421 10.4142 5.25 10 5.25C9.58579 5.25 9.25 4.91421 9.25 4.5C9.25 4.08579 9.58579 3.75 10 3.75C10.4142 3.75 10.75 4.08579 10.75 4.5Z" stroke="black" stroke-width="1.5" stroke-linecap="square"/>
<path id="vector_2" d="M12.5 19.25C18.6875 19.25 20.75 15.8667 20.75 15.8667V15.75H4.25V15.8667C4.25 15.8667 6.3125 19.25 12.5 19.25Z" stroke="black" stroke-width="1.5" stroke-linecap="square"/>
<path id="vector_3" d="M10.25 20.25H14.75" stroke="black" stroke-width="1.5" stroke-linecap="square"/>
<path id="vector_4" d="M15.1667 6.66667L16.5 4L17.8333 6.66667L20.5 8L17.8333 9.33333L16.5 12L15.1667 9.33333L12.5 8L15.1667 6.66667Z" stroke="black" stroke-width="1.5" stroke-linecap="square"/>
<path id="vector_5" d="M6 9.5L6.5 8.5L7 9.5L8 10L7 10.5L6.5 11.5L6 10.5L5 10L6 9.5Z" stroke="black" stroke-width="1.5" stroke-linecap="square"/>
</g>
</svg>
