<svg width="32" height="32" viewBox="0 0 32 32" fill="none" xmlns="http://www.w3.org/2000/svg">
<g id="Instagram">
<circle id="Ellipse 7" cx="16" cy="16" r="16" fill="#E5E6EF" fill-opacity="0.4"/>
<path id="Instagram_2" fill-rule="evenodd" clip-rule="evenodd" d="M13.5218 10.0736C12.5451 10.1177 11.6985 10.3565 11.0149 11.0372C10.3289 11.7215 10.0931 12.5714 10.0489 13.538C10.0214 14.1413 9.86085 18.699 10.3265 19.8942C10.6406 20.7006 11.2591 21.3206 12.0728 21.6356C12.4525 21.7833 12.886 21.8833 13.5218 21.9125C18.8383 22.1531 20.8091 22.0221 21.6401 19.8942C21.7876 19.5154 21.8891 19.0824 21.9171 18.4481C22.1601 13.118 21.8777 11.9627 20.9512 11.0372C20.2162 10.3041 19.3517 9.80505 13.5218 10.0736ZM13.5707 20.8405C12.9886 20.8143 12.6728 20.7173 12.4621 20.6357C11.9319 20.4297 11.5337 20.0331 11.3289 19.506C10.9743 18.5978 11.0919 14.2843 11.1236 13.5863C11.1546 12.9026 11.2931 12.2778 11.7755 11.7954C12.3725 11.1999 13.1439 10.908 18.3959 11.145C19.0813 11.176 19.7075 11.3142 20.1911 11.7954C20.7882 12.3909 21.0843 13.1682 20.8431 18.4001C20.8168 18.9807 20.7195 19.2958 20.6377 19.506C20.0974 20.8907 18.8544 21.0829 13.5707 20.8405ZM18.4538 12.8138C18.4538 13.208 18.7744 13.5286 19.1702 13.5286C19.5661 13.5286 19.8873 13.208 19.8873 12.8138C19.8873 12.4195 19.5661 12.0992 19.1702 12.0992C18.7744 12.0992 18.4538 12.4195 18.4538 12.8138ZM12.9176 15.9928C12.9176 17.6817 14.2902 19.051 15.9833 19.051C17.6765 19.051 19.049 17.6817 19.049 15.9928C19.049 14.3038 17.6765 12.9353 15.9833 12.9353C14.2902 12.9353 12.9176 14.3038 12.9176 15.9928ZM13.9934 15.9928C13.9934 14.897 14.8842 14.0079 15.9833 14.0079C17.0824 14.0079 17.9732 14.897 17.9732 15.9928C17.9732 17.0892 17.0824 17.9785 15.9833 17.9785C14.8842 17.9785 13.9934 17.0892 13.9934 15.9928Z" fill="#0F141B"/>
</g>
</svg>
