<svg width="26" height="26" viewBox="0 0 26 26" fill="none" xmlns="http://www.w3.org/2000/svg">
<g id="sparkle-2, star, magic, ai">
<path id="vector" d="M13.7985 2.82746C13.7255 2.44425 13.3904 2.16699 13.0003 2.16699C12.6102 2.16699 12.2752 2.44425 12.2022 2.82746C11.6834 5.55082 10.66 7.6239 9.14195 9.14195C7.6239 10.66 5.55082 11.6834 2.82746 12.2022C2.44425 12.2752 2.16699 12.6102 2.16699 13.0003C2.16699 13.3904 2.44425 13.7255 2.82746 13.7985C5.55082 14.3172 7.6239 15.3407 9.14195 16.8587C10.66 18.3768 11.6834 20.4498 12.2022 23.1732C12.2752 23.5564 12.6102 23.8337 13.0003 23.8337C13.3904 23.8337 13.7255 23.5564 13.7985 23.1732C14.3172 20.4498 15.3407 18.3768 16.8587 16.8587C18.3768 15.3407 20.4498 14.3172 23.1732 13.7985C23.5564 13.7255 23.8337 13.3904 23.8337 13.0003C23.8337 12.6102 23.5564 12.2752 23.1732 12.2022C20.4498 11.6834 18.3768 10.66 16.8587 9.14195C15.3407 7.6239 14.3172 5.55082 13.7985 2.82746Z" fill="#FFCB35"/>
</g>
</svg>
