<svg width="25" height="24" viewBox="0 0 25 24" fill="none" xmlns="http://www.w3.org/2000/svg">
<g id="globus, map, earth, globe">
<path id="vector" d="M12.5 21.25C17.6086 21.25 21.75 17.1086 21.75 12C21.75 6.89137 17.6086 2.75 12.5 2.75M12.5 21.25C7.39137 21.25 3.25 17.1086 3.25 12C3.25 6.89137 7.39137 2.75 12.5 2.75M12.5 21.25C10.1528 21.25 8.25 17.1086 8.25 12C8.25 6.89137 10.1528 2.75 12.5 2.75M12.5 21.25C14.8472 21.25 16.75 17.1086 16.75 12C16.75 6.89137 14.8472 2.75 12.5 2.75M21.5 12H3.5" stroke="black" stroke-width="1.5" stroke-linecap="square"/>
</g>
</svg>
